<svg width="1440" height="1024" viewBox="0 0 1440 1024" fill="none" xmlns="http://www.w3.org/2000/svg">
<g clip-path="url(#clip0_3_95)">
<g clip-path="url(#clip1_3_95)">
<path d="M-30 734.812H111.951V443.892H253.902V433.502H394.122V547.792H536.073V610.132H678.024V578.962H819.976V381.552H961.927V547.792H1103.88V610.132H1244.1V578.962H1386.05V495.842H1528V714.032V627.448V367.698H1386.05V440.428H1244.1H1103.88V336.528H961.927V263.798H819.976V346.918H678.024V502.768H536.073V419.648H394.122V253.408H253.902V243.018H111.951V596.278H-30V734.812Z" fill="#1C2033"/>
<path d="M-30 869.882H111.951V599.742H253.902V610.132H394.122V714.032H536.073V672.472H678.024V641.302H819.976V558.182H961.927V672.472H1103.88H1244.1V662.082H1386.05H1528V828.322V710.568V492.378H1386.05V575.498H1244.1V606.668H1103.88V544.328H961.927V378.088H819.976V575.498H678.024V606.668H536.073V544.328H394.122V430.038H253.902V440.428H111.951V731.348H-30V869.882Z" fill="#1C2033"/>
<path d="M-30 1025.73H111.951H253.902H394.122H536.073H678.024H819.976H961.927H1103.88H1244.1H1386.05H1528V824.858V658.618H1386.05H1244.1V669.008H1103.88H961.927V554.718H819.976V637.838H678.024V669.008H536.073V710.568H394.122V606.668H253.902V596.278H111.951V866.418H-30V1025.73Z" fill="#1C2033"/>
</g>
</g>
<defs>
<clipPath id="clip0_3_95">
<rect width="1440" height="1024" fill="white"/>
</clipPath>
<clipPath id="clip1_3_95">
<rect width="1558" height="1039" fill="white" transform="translate(-30 -15)"/>
</clipPath>
</defs>
</svg>
