<svg width="93" height="55" viewBox="0 0 93 55" fill="none" xmlns="http://www.w3.org/2000/svg">
<path d="M13.5 1.5H30C33.0376 1.5 35.5 3.96243 35.5 7C35.5 10.0376 33.0376 12.5 30 12.5H19C15.9624 12.5 13.5 10.0376 13.5 7V1.5Z" stroke="#FA7268" stroke-width="3"/>
<path d="M9.842 45.114C7.41 45.114 5.13 44.05 3.572 42.188C2.356 40.744 1.71 38.92 1.71 37.02C1.71 35.69 2.774 34.626 4.104 34.626C5.434 34.626 6.498 35.69 6.498 37.02C6.498 37.78 6.764 38.54 7.258 39.148C7.904 39.908 8.816 40.364 9.842 40.364C11.666 40.364 13.148 38.844 13.148 37.02V18.666C13.148 17.336 14.25 16.272 15.542 16.272C16.872 16.272 17.936 17.336 17.936 18.666V37.02C17.936 41.466 14.288 45.114 9.842 45.114ZM23.9249 22.694C22.5949 22.694 21.5309 21.63 21.5309 20.376V20.186C21.5309 18.856 22.5949 17.83 23.9249 17.83C25.1789 17.83 26.2429 18.856 26.2429 20.186V20.376C26.2429 21.63 25.1789 22.694 23.9249 22.694ZM23.9249 45C22.5949 45 21.5309 43.936 21.5309 42.644V27.976C21.5309 26.684 22.5949 25.658 23.9249 25.658C25.1789 25.658 26.2429 26.684 26.2429 27.976V42.644C26.2429 43.936 25.1789 45 23.9249 45ZM39.4149 25.734C37.4389 25.734 35.6149 26.342 34.0569 27.33V18.438C34.0569 17.184 33.0309 16.12 31.7769 16.12C30.4849 16.12 29.4589 17.184 29.4589 18.438V42.606C29.4589 43.86 30.4849 44.886 31.7769 44.886C32.8029 44.886 33.6769 44.202 33.9809 43.29C35.5009 44.354 37.4009 44.962 39.4149 44.962C44.6969 44.962 49.0289 40.668 49.0289 35.348C49.0289 30.028 44.6969 25.734 39.4149 25.734ZM39.4149 40.364C36.6409 40.364 34.3989 38.122 34.3989 35.348C34.3989 32.574 36.6409 30.332 39.4149 30.332C42.1509 30.332 44.4309 32.574 44.4309 35.348C44.4309 38.122 42.1509 40.364 39.4149 40.364ZM61.2723 25.734C59.2963 25.734 57.4723 26.342 55.9143 27.33V18.438C55.9143 17.184 54.8883 16.12 53.6343 16.12C52.3423 16.12 51.3163 17.184 51.3163 18.438V42.606C51.3163 43.86 52.3423 44.886 53.6343 44.886C54.6603 44.886 55.5343 44.202 55.8383 43.29C57.3583 44.354 59.2583 44.962 61.2723 44.962C66.5543 44.962 70.8863 40.668 70.8863 35.348C70.8863 30.028 66.5543 25.734 61.2723 25.734ZM61.2723 40.364C58.4983 40.364 56.2563 38.122 56.2563 35.348C56.2563 32.574 58.4983 30.332 61.2723 30.332C64.0083 30.332 66.2883 32.574 66.2883 35.348C66.2883 38.122 64.0083 40.364 61.2723 40.364ZM88.2218 26.076C87.0438 26.076 86.0178 27.102 86.0178 28.356V35.234C86.0178 37.856 84.0798 40.022 81.6858 40.022C79.3298 40.022 77.3918 37.856 77.3918 35.234V28.432C77.3918 27.216 76.4038 26.152 75.1878 26.152C73.9718 26.152 72.9838 27.216 72.9838 28.432V35.234C72.9838 40.402 76.8978 44.582 81.6858 44.582C83.2818 44.582 84.7638 44.126 86.0178 43.404V44.962C86.0178 47.736 83.8138 50.016 81.1158 50.016C79.7098 50.016 78.3418 49.37 77.3918 48.268C76.5938 47.28 75.1878 47.166 74.2758 48.002C73.3638 48.838 73.2498 50.282 74.0478 51.232C75.8338 53.36 78.3798 54.576 81.1158 54.576C86.2458 54.576 90.4638 50.244 90.4638 44.962V28.356C90.4638 27.102 89.4758 26.076 88.2218 26.076Z" fill="white"/>
</svg>
