<svg width="363" height="345" viewBox="0 0 363 345" fill="none" xmlns="http://www.w3.org/2000/svg">
<path d="M40.704 96C20.64 96 4.32 79.584 4.32 59.52C4.32 39.456 20.64 23.136 40.704 23.136C49.728 23.136 58.368 26.4 65.088 32.448C67.488 34.56 67.68 38.208 65.472 40.608C63.36 42.912 59.712 43.104 57.408 40.992C52.8 36.864 46.848 34.656 40.704 34.656C26.976 34.656 15.84 45.792 15.84 59.52C15.84 73.248 26.976 84.384 40.704 84.384C47.04 84.384 53.088 82.08 57.696 77.76C60 75.552 63.648 75.744 65.856 78.048C67.968 80.352 67.872 84 65.568 86.208C58.752 92.448 49.92 96 40.704 96ZM118.194 69.504C118.194 57.6 108.594 48 96.69 48C93.138 48 89.778 48.864 86.802 50.4V29.28C86.802 26.112 84.21 23.424 80.946 23.424C77.778 23.424 75.09 26.112 75.09 29.28V90.528C75.09 93.696 77.778 96.288 80.946 96.288C84.21 96.288 86.802 93.696 86.802 90.528V69.504C86.802 64.032 91.218 59.616 96.69 59.616C102.162 59.616 106.578 64.032 106.578 69.504V90.528C106.578 93.696 109.17 96.288 112.434 96.288C115.602 96.288 118.194 93.696 118.194 90.528V69.504ZM167.459 48C164.291 48 162.371 50.496 162.371 53.472V53.952C158.243 50.592 153.443 48.384 147.683 48.384C134.819 48.384 124.451 58.848 124.451 71.616C124.451 84.384 134.819 94.752 147.683 94.752C153.443 94.752 158.243 92.64 162.371 89.088V90.24C162.371 93.216 164.291 95.712 167.459 95.712C170.627 95.712 173.027 93.216 173.027 90.24V53.472C173.027 50.496 170.627 48 167.459 48ZM147.683 83.52C141.059 83.52 135.587 78.24 135.587 71.616C135.587 64.992 141.059 59.616 147.683 59.616C154.211 59.616 159.683 64.992 159.683 71.616C159.683 78.24 154.211 83.52 147.683 83.52ZM201.931 84.192C201.259 84.192 200.395 84.288 199.915 83.808C199.243 83.232 199.435 82.08 199.243 81.312V58.464H202.411C205.579 58.464 208.171 55.872 208.171 52.704C208.171 49.536 205.579 46.944 202.411 46.944H199.243V28.608C199.243 25.44 196.651 22.848 193.483 22.848C190.315 22.848 187.723 25.44 187.723 28.608V46.944H183.595C180.427 46.944 177.835 49.536 177.835 52.704C177.835 55.872 180.427 58.464 183.595 58.464H187.723V82.656C187.723 85.632 189.067 89.088 190.987 91.296C193.195 93.792 196.267 95.136 199.435 95.616C200.299 95.712 201.067 95.712 201.931 95.712C205.099 95.712 207.691 93.216 207.691 89.952C207.691 86.784 205.099 84.192 201.931 84.192ZM40.704 211C20.64 211 4.32 194.584 4.32 174.52C4.32 154.456 20.64 138.136 40.704 138.136C49.728 138.136 58.368 141.4 65.088 147.448C67.488 149.56 67.68 153.208 65.472 155.608C63.36 157.912 59.712 158.104 57.408 155.992C52.8 151.864 46.848 149.656 40.704 149.656C26.976 149.656 15.84 160.792 15.84 174.52C15.84 188.248 26.976 199.384 40.704 199.384C47.04 199.384 53.088 197.08 57.696 192.76C60 190.552 63.648 190.744 65.856 193.048C67.968 195.352 67.872 199 65.568 201.208C58.752 207.448 49.92 211 40.704 211ZM98.226 210.808C84.978 210.808 74.13 200.056 74.13 186.712C74.13 173.464 84.978 162.616 98.226 162.616C111.474 162.616 122.322 173.464 122.418 186.808C122.322 200.056 111.474 210.808 98.226 210.808ZM98.226 174.424C91.41 174.424 85.938 179.896 85.938 186.712C85.938 193.528 91.41 199 98.226 199C105.042 199 110.514 193.528 110.514 186.712C110.514 179.896 105.042 174.424 98.226 174.424ZM152.032 163.096C147.712 163.096 143.776 164.344 140.32 166.552C139.552 164.248 137.44 162.616 134.944 162.616C131.776 162.616 129.184 165.208 129.184 168.376V205.048C129.184 208.216 131.776 210.808 134.944 210.808C138.112 210.808 140.704 208.216 140.704 205.048V188.728C140.704 182.104 144.544 174.616 152.032 174.616C158.08 174.616 163.072 180.088 163.072 186.904V205.048C163.072 208.216 165.568 210.808 168.832 210.808C172 210.808 174.496 208.216 174.496 205.048V186.904C174.496 173.752 164.416 163.096 152.032 163.096ZM204.532 163.096C200.212 163.096 196.276 164.344 192.82 166.552C192.052 164.248 189.94 162.616 187.444 162.616C184.276 162.616 181.684 165.208 181.684 168.376V205.048C181.684 208.216 184.276 210.808 187.444 210.808C190.612 210.808 193.204 208.216 193.204 205.048V188.728C193.204 182.104 197.044 174.616 204.532 174.616C210.58 174.616 215.572 180.088 215.572 186.904V205.048C215.572 208.216 218.068 210.808 221.332 210.808C224.5 210.808 226.996 208.216 226.996 205.048V186.904C226.996 173.752 216.916 163.096 204.532 163.096ZM277.864 186.712C278.248 185.752 278.632 184.792 278.632 183.928C278.824 180.76 277.096 177.208 275.56 174.52C272.104 168.76 266.536 164.728 260.008 163.48C258.568 163.192 257.224 163.096 255.784 163.096C242.44 163.096 231.784 174.04 231.784 187.192C231.784 200.536 242.44 211.288 255.784 211.288C261.256 211.288 268.648 209.56 273.928 204.472C276.232 202.264 276.328 198.52 274.024 196.312C271.816 194.008 268.168 194.008 265.864 196.216C263.368 198.616 258.856 199.864 255.784 199.864C249.832 199.864 244.936 195.64 243.592 190.168H273.16C275.464 190.168 277.096 188.536 277.864 186.712ZM255.784 174.712C260.104 174.712 263.656 176.824 265.576 180.472H245.224C247.528 176.92 251.368 174.712 255.784 174.712ZM307.967 210.712C301.631 210.712 295.775 208.312 291.263 203.992C286.655 199.48 284.063 193.528 283.871 187.096C283.775 180.76 286.079 174.616 290.687 170.008C295.103 165.4 301.055 162.808 307.487 162.616C313.919 162.52 319.967 164.92 324.575 169.432C326.879 171.544 326.975 175.288 324.767 177.496C322.559 179.8 318.911 179.896 316.607 177.688C314.207 175.384 311.039 174.136 307.679 174.136C304.319 174.136 301.247 175.576 298.847 177.976C296.639 180.376 295.295 183.544 295.391 186.904C295.391 190.168 296.831 193.432 299.231 195.64C301.631 198.04 304.799 199.288 308.063 199.192C311.231 199.192 314.207 197.944 316.511 195.832C318.719 193.624 322.463 193.816 324.575 196.12C326.783 198.424 326.591 202.072 324.287 204.28C319.967 208.312 314.303 210.616 308.351 210.712H307.967ZM353.525 199.192C352.853 199.192 351.989 199.288 351.509 198.808C350.837 198.232 351.029 197.08 350.837 196.312V173.464H354.005C357.173 173.464 359.765 170.872 359.765 167.704C359.765 164.536 357.173 161.944 354.005 161.944H350.837V143.608C350.837 140.44 348.245 137.848 345.077 137.848C341.909 137.848 339.317 140.44 339.317 143.608V161.944H335.189C332.021 161.944 329.428 164.536 329.428 167.704C329.428 170.872 332.021 173.464 335.189 173.464H339.317V197.656C339.317 200.632 340.661 204.088 342.581 206.296C344.789 208.792 347.861 210.136 351.029 210.616C351.893 210.712 352.661 210.712 353.525 210.712C356.693 210.712 359.285 208.216 359.285 204.952C359.285 201.784 356.693 199.192 353.525 199.192ZM70.848 290.384V289.904C70.848 286.736 68.256 284.144 64.992 284.144H46.368C43.104 284.144 40.512 286.736 40.512 289.904C40.512 293.168 43.104 295.76 46.368 295.76H58.944C57.024 306.8 47.904 314.288 35.52 314.288C22.176 314.288 11.712 303.344 11.712 289.424C11.712 275.792 22.752 264.656 36.48 264.656C42.816 264.656 48.864 267.056 53.472 271.472C55.776 273.68 59.424 273.488 61.632 271.184C63.84 268.88 63.744 265.136 61.44 262.928C54.624 256.592 45.792 253.04 36.48 253.04C16.32 253.04 0 269.36 0 289.424C0 309.872 15.552 325.904 35.52 325.904C56.064 325.904 70.944 311.408 70.944 291.44C70.944 291.056 70.944 290.672 70.848 290.384ZM116.417 284.528C112.097 280.496 106.529 278.192 100.577 278.192C96.1605 278.192 91.9365 279.536 88.3845 281.744C87.6165 279.44 85.5045 277.808 82.9125 277.808C79.7445 277.808 77.1525 280.304 77.1525 283.472V320.24C77.1525 323.408 79.7445 326 82.9125 326C86.0805 326 88.6725 323.408 88.6725 320.24V302.096C88.6725 295.28 94.0485 289.712 100.577 289.712C103.553 289.712 106.433 290.864 108.545 292.88C110.945 295.088 114.497 294.896 116.705 292.592C118.913 290.288 118.721 286.64 116.417 284.528ZM145.195 325.808C131.947 325.808 121.099 315.056 121.099 301.712C121.099 288.464 131.947 277.616 145.195 277.616C158.443 277.616 169.291 288.464 169.387 301.808C169.291 315.056 158.443 325.808 145.195 325.808ZM145.195 289.424C138.379 289.424 132.907 294.896 132.907 301.712C132.907 308.528 138.379 314 145.195 314C152.011 314 157.483 308.528 157.483 301.712C157.483 294.896 152.011 289.424 145.195 289.424ZM240.665 284.048C240.665 280.88 238.073 278.288 234.905 278.288C231.737 278.288 229.145 280.88 229.145 284.048V308.336C229.145 311.984 225.785 314.96 221.656 314.96C217.529 314.96 214.169 311.984 214.169 308.336C214.169 308.144 214.169 308.048 214.169 307.952V307.568V284.24C214.169 281.072 211.577 278.48 208.409 278.48C205.241 278.48 202.649 281.072 202.649 284.24V307.568C202.649 307.664 202.649 307.76 202.649 307.952V308.336C202.649 311.984 199.289 314.96 195.161 314.96C191.033 314.96 187.673 311.984 187.673 308.336C187.673 308.144 187.673 308.048 187.673 307.952V307.568V284.24C187.673 281.072 185.081 278.48 181.913 278.48C178.745 278.48 176.153 281.072 176.153 284.24V307.568C176.153 307.664 176.153 307.76 176.153 307.952V308.336C176.153 318.32 184.697 326.48 195.161 326.48C200.345 326.48 204.953 324.464 208.409 321.296C211.865 324.464 216.569 326.48 221.656 326.48C231.929 326.48 240.281 318.608 240.665 308.912V308.336V284.048Z" fill="white"/>
<path d="M273 281H344C352.284 281 359 287.716 359 296V308C359 316.284 352.284 323 344 323H288C279.716 323 273 316.284 273 308V281Z" fill="#202434" stroke="#FA7268" stroke-width="6"/>
</svg>
